<svg xmlns="http://www.w3.org/2000/svg" width="430.762" height="47.819" viewBox="0 0 430.762 47.819"><defs><style>.a{fill-rule:evenodd;}</style></defs><g transform="translate(-3.6 -5.3)"><path class="a" d="M52.883,10.93H28.969a10.089,10.089,0,1,0,0,20.178H52.883a10.089,10.089,0,1,0,0-20.178m.873,10.089a3.876,3.876,0,0,1-3.77,3.91H31.867a3.913,3.913,0,0,1,0-7.82H49.985a3.9,3.9,0,0,1,3.77,3.91" transform="translate(37.889 14.025)"/><path class="a" d="M130.443,10.93H106.529a10.107,10.107,0,1,0,0,20.213h23.914a10.107,10.107,0,1,0,0-20.213m-2.9,6.214a3.823,3.823,0,0,1,3.77,3.875,3.876,3.876,0,0,1-3.77,3.91H109.427a3.895,3.895,0,0,1,0-7.785Z" transform="translate(231.095 14.025)"/><path class="a" d="M92.82,24.021c-.943-.943-6.947-8.134-8.274-9.705a8.392,8.392,0,0,0-7.261-3.386H58.049a10.089,10.089,0,1,0,0,20.178H78.157c.628,0,.838-.419.419-.908l-4.364-5.306H60.947a3.895,3.895,0,0,1,0-7.785h14.7a3.205,3.205,0,0,1,2.723,1.536c.908,1.117,7.331,8.8,8.274,9.74a10.29,10.29,0,0,0,7.226,2.723H99.8V24.929H95.508a3.754,3.754,0,0,1-2.688-.908" transform="translate(110.329 14.025)"/><path class="a" d="M19.275,26.609a3.876,3.876,0,0,1,3.77-3.91H47.064c.663,0,.838-.419.419-.908l-4.4-5.306H21.4a10.179,10.179,0,0,0-8.763,5.027V8.7H3.6v28h9.042V31.671A10.331,10.331,0,0,0,21.4,36.7H48.251V30.484H23.08a3.852,3.852,0,0,1-3.805-3.875" transform="translate(0 8.47)"/><path class="a" d="M69.41,10.94H44.519A10.154,10.154,0,0,0,34.36,21.029V31.118h9.67V21.029a3.845,3.845,0,0,1,3.77-3.875H73.355c.628,0,.838-.419.419-.908Z" transform="translate(76.625 14.05)"/><path class="a" d="M116.054,26.574a3.876,3.876,0,0,1-3.77,3.91H94.131a3.913,3.913,0,0,1,0-7.82h14.558c.628,0,.838-.419.419-.908l-4.364-5.306H90.849a10.089,10.089,0,1,0,0,20.178h24.333a10.154,10.154,0,0,0,10.159-10.089V8.7h-9.286Z" transform="translate(192.036 8.47)"/><path class="a" d="M100.185,20.959c0,2.06-.7,3.77-3.631,2.025-1.117-.663-2.095-1.292-3.666-2.374-1.536-1.082-7.261-5.062-8.9-6.214-4.469-3.107-7.68-3.526-9.426-3.526-6.563,0-9.426,4.887-9.461,10.508v9.88h9.112v-9.88c0-2.234.908-3.631,3.631-2.025,1.117.663,2.025,1.257,3.666,2.374,1.641,1.152,5.551,3.875,8.937,6.214,4.469,3.107,7.68,3.526,9.426,3.526,6.563,0,9.426-4.887,9.461-10.508v-9.88h-9.147Z" transform="translate(153.2 13.875)"/><path class="a" d="M152.968,29.144c-.384,21.749-33.06,19.41-31.35-1.431.628-7.471,6.808-13.894,15.675-14.244V5.3c-13.859.454-22.622,9.775-23.844,20.911a24.263,24.263,0,0,0,27.3,26.707c11.416-1.466,20-10.857,20.318-23.809h-8.1Z" transform="translate(273.295 0)"/></g></svg>