<svg xmlns="http://www.w3.org/2000/svg" width="456" height="630" viewBox="0 0 456 630"><defs><style>.a{fill:#f7f7f7;}.b{font-size:45px;font-family:DINPro-Bold, DIN Pro;font-weight:700;}.c{fill:#fff;stroke:#ced4da;}.d{font-size:18px;}.d,.e{font-family:DINPro-Regular, DINPro;}.e{fill:#707070;font-size:14px;}.f{fill:#0461be;}.g{stroke:none;}.h{fill:none;}</style></defs><g transform="translate(-866 -68)"><rect class="a" width="456" height="630" rx="11" transform="translate(866 68)"/><text class="b" transform="translate(911 143)"><tspan x="0" y="0">¡Cotiza la tuya!</tspan></text><g transform="translate(0 70)"><g class="c" transform="translate(917 211)"><rect class="g" width="360" height="40" rx="20"/><rect class="h" x="0.5" y="0.5" width="359" height="39" rx="19.5"/></g><text class="d" transform="translate(920 200)"><tspan x="0" y="0">Nombre completo</tspan></text><g class="c" transform="translate(917 285)"><rect class="g" width="360" height="40" rx="20"/><rect class="h" x="0.5" y="0.5" width="359" height="39" rx="19.5"/></g><text class="d" transform="translate(920 275)"><tspan x="0" y="0">Email</tspan></text><g class="c" transform="translate(917 364)"><rect class="g" width="360" height="40" rx="20"/><rect class="h" x="0.5" y="0.5" width="359" height="39" rx="19.5"/></g><text class="d" transform="translate(920 353)"><tspan x="0" y="0">Número Celular</tspan></text><g class="c" transform="translate(917 442)"><rect class="g" width="178" height="40" rx="20"/><rect class="h" x="0.5" y="0.5" width="177" height="39" rx="19.5"/></g><text class="d" transform="translate(920 431)"><tspan x="0" y="0">Departamento</tspan></text><g class="c" transform="translate(1100 442)"><rect class="g" width="177" height="40" rx="20"/><rect class="h" x="0.5" y="0.5" width="176" height="39" rx="19.5"/></g><text class="d" transform="translate(1100 431)"><tspan x="0" y="0">Ciudad</tspan></text><text class="e" transform="translate(942 502)"><tspan x="0" y="15">Acepto la política de </tspan><tspan class="f" y="15">Tratamiento de Datos Personales</tspan></text><g class="c" transform="translate(917 501)"><rect class="g" width="19" height="20" rx="5"/><rect class="h" x="0.5" y="0.5" width="18" height="19" rx="4.5"/></g><path d="M4.5,0,9,5H0Z" transform="translate(1081 466) rotate(180)"/><path d="M4,0,8,5H0Z" transform="translate(1261 466) rotate(180)"/><g class="c" transform="translate(917 131)"><rect class="g" width="360" height="40" rx="20"/><rect class="h" x="0.5" y="0.5" width="359" height="39" rx="19.5"/></g><text class="d" transform="translate(920 120)"><tspan x="0" y="0">Selecciona un modelo</tspan></text><path d="M4.5,0,9,5H0Z" transform="translate(1251 155) rotate(180)"/><text class="d" transform="translate(940 157)"><tspan x="0" y="0">Rexton G4</tspan></text></g></g></svg>